<svg width="87" height="86" viewBox="0 0 87 86" fill="none" xmlns="http://www.w3.org/2000/svg">
<g clip-path="url(#clip0_113_5128)">
<g opacity="0.51">
<path fill-rule="evenodd" clip-rule="evenodd" d="M69.2304 53.8194H49.4828L57.9066 45.3581H77.6542L69.2304 53.8194ZM67.7114 80.8678H45.8923V58.8129H67.7114V80.8678ZM19.1018 80.8678H40.9209V58.8129H19.1018V80.8678ZM9.15899 45.3581H28.9066L37.3304 53.8194H17.5828L9.15899 45.3581ZM86.078 41.7516C85.6637 40.7807 84.6971 40.2258 83.7304 40.2258H56.8018C56.1114 40.2258 55.559 40.5032 55.0066 40.9194L43.4066 52.7097L31.8066 40.9194C31.2542 40.5032 30.7018 40.2258 30.0114 40.2258H3.0828C2.11613 40.2258 1.14946 40.7807 0.735178 41.7516C0.320892 42.7226 0.597083 43.8323 1.28756 44.5258L13.9923 57.2871V83.3645C13.9923 84.7516 15.0971 85.8613 16.478 85.8613H70.1971C71.578 85.8613 72.6828 84.7516 72.6828 83.3645V57.4258L85.3876 44.6645C86.2161 43.8323 86.3542 42.7226 86.078 41.7516Z" fill="#2CAFE5"/>
<path fill-rule="evenodd" clip-rule="evenodd" d="M31.6236 32.1806C33.0045 32.1806 34.1093 31.0709 34.1093 29.6838C34.1093 28.2967 33.0045 27.187 31.6236 27.187C23.1998 27.187 19.3331 23.0257 19.3331 19.1419C19.3331 16.229 21.5426 13.4548 26.2379 13.4548C31.6236 13.4548 35.4902 17.7548 37.8379 26.3548C39.7712 33.2903 39.7712 40.5032 39.7712 40.6419C39.7712 42.029 40.876 43.1386 42.2569 43.1386C43.6379 43.1386 44.7426 42.029 44.7426 40.6419C44.7426 40.3644 44.7426 32.8741 42.6712 25.1064C38.9426 11.2354 31.7617 8.32251 26.376 8.32251C18.5045 8.32251 14.4998 13.7322 14.4998 19.1419C14.3617 26.0773 20.714 32.1806 31.6236 32.1806Z" fill="#2CAFE5"/>
<path fill-rule="evenodd" clip-rule="evenodd" d="M49.9906 26.9097C48.6096 26.9097 47.5049 28.0193 47.5049 29.4064C47.5049 30.7935 48.6096 31.9032 49.9906 31.9032C63.2477 31.9032 70.9811 24.5516 70.9811 16.229C70.9811 10.4032 66.562 2.77417 55.2382 2.77417C53.8573 2.77417 52.7525 3.88385 52.7525 5.27094C52.7525 6.65804 53.8573 7.76772 55.2382 7.76772C71.9477 8.32256 68.7715 27.4645 49.9906 26.9097Z" fill="#2CAFE5"/>
<path fill-rule="evenodd" clip-rule="evenodd" d="M42.9474 6.24187C43.914 7.07413 45.7093 7.07413 46.6759 6.24187L49.5759 3.88381C51.9236 1.66446 48.3331 -1.38716 45.7093 0.693487L44.7426 1.52575L43.7759 0.693487C41.2902 -1.38716 37.6998 1.66446 40.0474 3.88381L42.9474 6.24187Z" fill="#2CAFE5"/>
</g>
</g>
<defs>
<clipPath id="clip0_113_5128">
<rect width="87" height="86" fill="white"/>
</clipPath>
</defs>
</svg>
