<svg width="29" height="28" viewBox="0 0 29 28" fill="none" xmlns="http://www.w3.org/2000/svg">
<ellipse cx="7.78054" cy="21.6675" rx="2.27282" ry="2.27495" stroke="white" stroke-width="2.2575" stroke-linecap="round" stroke-linejoin="round"/>
<ellipse cx="20.2812" cy="21.6675" rx="2.27282" ry="2.27495" stroke="white" stroke-width="2.2575" stroke-linecap="round" stroke-linejoin="round"/>
<path d="M20.2811 19.3929H7.78054V3.46826H5.50772" stroke="white" stroke-width="2.2575" stroke-linecap="round" stroke-linejoin="round"/>
<path d="M7.86112 4.61729C7.23931 4.57282 6.6992 5.04085 6.65473 5.66266C6.61027 6.28446 7.0783 6.82458 7.7001 6.86904L7.86112 4.61729ZM14.5243 7.35702C15.1461 7.40148 15.6862 6.93345 15.7306 6.31165C15.7751 5.68984 15.3071 5.14973 14.6853 5.10526L14.5243 7.35702ZM23.8338 13.8677C23.9222 13.2506 23.4935 12.6788 22.8764 12.5904C22.2593 12.5021 21.6874 12.9307 21.5991 13.5478L23.8338 13.8677ZM22.554 14.843V15.9717C23.1156 15.9717 23.5917 15.5589 23.6713 15.0029L22.554 14.843ZM7.78061 13.7142C7.15722 13.7142 6.65186 14.2196 6.65186 14.843C6.65186 15.4664 7.15722 15.9717 7.78061 15.9717V13.7142ZM7.7001 6.86904L14.5243 7.35702L14.6853 5.10526L7.86112 4.61729L7.7001 6.86904ZM21.5991 13.5478L21.4366 14.683L23.6713 15.0029L23.8338 13.8677L21.5991 13.5478ZM22.554 13.7142H7.78061V15.9717H22.554V13.7142Z" fill="white"/>
<path d="M18.0084 5.75194C17.385 5.75194 16.8796 6.2573 16.8796 6.88069C16.8796 7.50408 17.385 8.00944 18.0084 8.00944V5.75194ZM24.8269 8.00944C25.4503 8.00944 25.9556 7.50408 25.9556 6.88069C25.9556 6.2573 25.4503 5.75194 24.8269 5.75194V8.00944ZM22.5464 3.46826C22.5464 2.84487 22.041 2.33951 21.4176 2.33951C20.7942 2.33951 20.2889 2.84487 20.2889 3.46826H22.5464ZM20.2889 10.2931C20.2889 10.9165 20.7942 11.4219 21.4176 11.4219C22.041 11.4219 22.5464 10.9165 22.5464 10.2931H20.2889ZM18.0084 8.00944H24.8269V5.75194H18.0084V8.00944ZM20.2889 3.46826V10.2931H22.5464V3.46826H20.2889Z" fill="white"/>
</svg>
