<?xml version="1.0" encoding="utf-8"?>
<!-- Generator: Adobe Illustrator 24.2.3, SVG Export Plug-In . SVG Version: 6.00 Build 0)  -->
<svg version="1.1" id="Layer_1" xmlns="http://www.w3.org/2000/svg" xmlns:xlink="http://www.w3.org/1999/xlink" x="0px" y="0px"
	 viewBox="0 0 50 50" style="enable-background:new 0 0 50 50;" xml:space="preserve">
<style type="text/css">
	.st0{fill:#2CAFE5;}
</style>
<g>
	<g>
		<path class="st0" d="M37.5,39.7H12.5c-3,0-5.4-2.4-5.4-5.4V15.6c0-3,2.4-5.4,5.4-5.4h25.1c3,0,5.4,2.4,5.4,5.4v18.7
			C42.9,37.3,40.5,39.7,37.5,39.7z M12.5,13.9c-1,0-1.8,0.8-1.8,1.8v18.7c0,1,0.8,1.8,1.8,1.8h25.1c1,0,1.8-0.8,1.8-1.8V15.6
			c0-1-0.8-1.8-1.8-1.8H12.5z"/>
	</g>
	<g>
		<path class="st0" d="M25,28.6c-0.4,0-0.7-0.1-1-0.3L7.9,17.2c-0.8-0.6-1-1.7-0.5-2.5s1.7-1,2.5-0.5L25,24.7l15.1-10.4
			c0.8-0.6,1.9-0.4,2.5,0.5c0.6,0.8,0.4,1.9-0.5,2.5L26,28.3C25.7,28.5,25.4,28.6,25,28.6z"/>
	</g>
</g>
</svg>
