<svg width="20" height="20" viewBox="0 0 20 20" fill="none" xmlns="http://www.w3.org/2000/svg">
<path fill-rule="evenodd" clip-rule="evenodd" d="M1.03163 3.0381L7.50128 10.6885V15.8333C7.50128 16.149 7.67961 16.4375 7.96193 16.5787L11.2953 18.2454C11.8493 18.5224 12.5013 18.1195 12.5013 17.5V10.6885L18.9709 3.0381C19.429 2.49646 19.044 1.66666 18.3346 1.66666H1.66794C0.958586 1.66666 0.573585 2.49646 1.03163 3.0381ZM3.46403 3.33333H16.5385L11.0316 9.84523C10.9044 9.99566 10.8346 10.1863 10.8346 10.3833V16.1516L9.16794 15.3183V10.3833C9.16794 10.1863 9.09814 9.99566 8.97092 9.84523L3.46403 3.33333Z" fill="black"/>
<mask id="mask0_0_95" style="mask-type:alpha" maskUnits="userSpaceOnUse" x="0" y="1" width="20" height="18">
<path fill-rule="evenodd" clip-rule="evenodd" d="M1.03163 3.0381L7.50128 10.6885V15.8333C7.50128 16.149 7.67961 16.4375 7.96193 16.5787L11.2953 18.2454C11.8493 18.5224 12.5013 18.1195 12.5013 17.5V10.6885L18.9709 3.0381C19.429 2.49646 19.044 1.66666 18.3346 1.66666H1.66794C0.958586 1.66666 0.573585 2.49646 1.03163 3.0381ZM3.46403 3.33333H16.5385L11.0316 9.84523C10.9044 9.99566 10.8346 10.1863 10.8346 10.3833V16.1516L9.16794 15.3183V10.3833C9.16794 10.1863 9.09814 9.99566 8.97092 9.84523L3.46403 3.33333Z" fill="white"/>
</mask>
<g mask="url(#mask0_0_95)">
</g>
</svg>
