<svg width="66" height="66" viewBox="0 0 66 66" fill="none" xmlns="http://www.w3.org/2000/svg">
<path d="M19.25 30.25V52.25C19.25 53.7688 18.0188 55 16.5 55H11C9.48122 55 8.25 53.7688 8.25 52.25V33C8.25 31.4812 9.48122 30.25 11 30.25H19.25C25.3251 30.25 30.25 25.3251 30.25 19.25V16.5C30.25 13.4624 32.7124 11 35.75 11C38.7876 11 41.25 13.4624 41.25 16.5V30.25H49.5C52.5376 30.25 55 32.7124 55 35.75L52.25 49.5C51.4375 52.9657 49.1952 55.208 46.75 55H27.5C22.9437 55 19.25 51.3063 19.25 46.75" stroke="black" stroke-width="5.5" stroke-linecap="round" stroke-linejoin="round"/>
</svg>
