<?xml version="1.0" encoding="utf-8"?>
<!-- Generator: Adobe Illustrator 24.2.3, SVG Export Plug-In . SVG Version: 6.00 Build 0)  -->
<svg version="1.1" id="Layer_1" xmlns="http://www.w3.org/2000/svg" xmlns:xlink="http://www.w3.org/1999/xlink" x="0px" y="0px"
	 viewBox="0 0 50 50" style="enable-background:new 0 0 50 50;" xml:space="preserve">
<style type="text/css">
	.st0{fill:#2CAFE5;}
</style>
<g>
	<g>
		<path class="st0" d="M25,30c-4,0-7.2-3.3-7.2-7.3c0-4,3.2-7.3,7.2-7.3s7.2,3.3,7.2,7.3C32.2,26.7,29,30,25,30z M25,19
			c-2,0-3.6,1.7-3.6,3.8c0,2.1,1.6,3.8,3.6,3.8s3.6-1.7,3.6-3.8C28.6,20.6,27,19,25,19z"/>
	</g>
	<g>
		<path class="st0" d="M25,43.9c-1.4,0-2.8-0.6-3.8-1.6l-7.6-7.8c-6.3-6.5-6.3-17,0-23.4c3-3.1,7.1-4.9,11.4-4.9c0,0,0,0,0,0
			c4.3,0,8.4,1.7,11.4,4.9c6.3,6.5,6.3,16.9,0,23.4l0,0l-7.6,7.8C27.8,43.3,26.4,43.9,25,43.9z M25,9.7c-3.3,0-6.5,1.3-8.8,3.8
			c-4.9,5.1-4.9,13.3,0,18.4l7.6,7.8c0.7,0.7,1.8,0.7,2.5,0l7.6-7.8c4.9-5.1,4.9-13.3,0-18.4C31.5,11.1,28.3,9.7,25,9.7z M35.1,33.2
			L35.1,33.2L35.1,33.2z"/>
	</g>
</g>
</svg>
