<?xml version="1.0" encoding="utf-8"?>
<!-- Generator: Adobe Illustrator 24.2.3, SVG Export Plug-In . SVG Version: 6.00 Build 0)  -->
<svg version="1.1" id="Layer_1" xmlns="http://www.w3.org/2000/svg" xmlns:xlink="http://www.w3.org/1999/xlink" x="0px" y="0px"
	 viewBox="0 0 50 50" style="enable-background:new 0 0 50 50;" xml:space="preserve">
<style type="text/css">
	.st0{fill:#2CAFE5;}
</style>
<g>
	<path class="st0" d="M36.6,42.5c0,0-0.1,0-0.1,0C21.2,41.5,8.9,28.9,8,13.1c0,0,0-0.1,0-0.1c0-3,2.4-5.5,5.4-5.5h7.2
		c0.7,0,1.4,0.5,1.7,1.1l3.6,9.2c0.3,0.8,0,1.7-0.7,2.2L22,21.9c1.5,2.5,3.5,4.6,5.9,6.2l1.8-3.1c0.5-0.8,1.4-1.1,2.2-0.8l9,3.7
		c0.7,0.3,1.1,0.9,1.1,1.7V37C42,40,39.6,42.5,36.6,42.5z M11.6,12.9c0.9,13.9,11.6,25.1,25.1,26c1,0,1.7-0.9,1.7-1.9v-6.2L32,28.2
		l-1.9,3.3c-0.5,0.8-1.5,1.1-2.4,0.7c-4.2-2.1-7.7-5.7-9.8-10.1c-0.4-0.8-0.1-1.8,0.7-2.3l3.2-2l-2.6-6.7h-5.9
		C12.4,11.1,11.6,11.9,11.6,12.9z"/>
</g>
</svg>
