<?xml version="1.0" encoding="utf-8"?>
<!-- Generator: Adobe Illustrator 24.2.3, SVG Export Plug-In . SVG Version: 6.00 Build 0)  -->
<svg version="1.1" id="Layer_1" xmlns="http://www.w3.org/2000/svg" xmlns:xlink="http://www.w3.org/1999/xlink" x="0px" y="0px"
	 viewBox="0 0 583.6 583.6" style="enable-background:new 0 0 583.6 583.6;" xml:space="preserve">
<style type="text/css">
	.st0{fill:#2CAFE5;}
</style>
<path class="st0" d="M516,231.7c-4.3-5.6-11-8.8-18.1-8.8h-80.9L309.4,93.7c-8.7-10.4-26.5-10.4-35.2,0L166.5,222.9H85.6
	c-7.1,0-13.7,3.3-18.1,8.8c-4.3,5.6-5.9,12.8-4.2,19.7l45.4,181.4c6.2,37.9,34.4,65.1,66.9,65.1c0.5,0,1,0,1.5,0h228.5
	c0.5,0,1,0,1.5,0c33,0,61.3-27.1,67.1-63.2l45.8-183.3C521.9,244.5,520.4,237.2,516,231.7z M291.8,144.1l65.6,78.8H226.2
	L291.8,144.1z M429.5,425.3c-2.5,15.4-12.1,26.8-23.2,26.6H176.7c-11,0.2-20.1-11.2-23-28.5L115,268.7h353.7L429.5,425.3z"/>
</svg>
