<svg width="32" height="31" viewBox="0 0 32 31" fill="none" xmlns="http://www.w3.org/2000/svg">
<path d="M4.84082 27.1249L6.97207 22.2166C3.59847 17.4276 4.31516 10.8767 8.6444 6.9304C12.9736 2.98413 19.5628 2.87556 24.0197 6.67704C28.4766 10.4785 29.4088 17.0023 26.1948 21.8998C22.9808 26.7974 16.6249 28.5384 11.3637 25.9624L4.84082 27.1249" stroke="#69BB00" stroke-width="2.38462" stroke-linecap="round" stroke-linejoin="round"/>
<path d="M12.5908 12.9167C12.5908 13.2734 12.88 13.5626 13.2367 13.5626C13.5933 13.5626 13.8825 13.2734 13.8825 12.9167V11.6251C13.8825 11.2684 13.5933 10.9792 13.2367 10.9792C12.88 10.9792 12.5908 11.2684 12.5908 11.6251V12.9167C12.5908 16.4836 15.4823 19.3751 19.0492 19.3751H20.3408C20.6975 19.3751 20.9867 19.0859 20.9867 18.7292C20.9867 18.3726 20.6975 18.0834 20.3408 18.0834H19.0492C18.6925 18.0834 18.4033 18.3726 18.4033 18.7292C18.4033 19.0859 18.6925 19.3751 19.0492 19.3751" stroke="#69BB00" stroke-width="2.38462" stroke-linecap="round" stroke-linejoin="round"/>
</svg>
