<?xml version="1.0" encoding="utf-8"?>
<!-- Generator: Adobe Illustrator 24.2.3, SVG Export Plug-In . SVG Version: 6.00 Build 0)  -->
<svg version="1.1" id="Layer_1" xmlns="http://www.w3.org/2000/svg" xmlns:xlink="http://www.w3.org/1999/xlink" x="0px" y="0px"
	 viewBox="0 0 50 50" style="enable-background:new 0 0 50 50;" xml:space="preserve">
<style type="text/css">
	.st0{fill:#2CAFE5;}
</style>
<g>
	<path class="st0" d="M25,43.1c-2.5,0-5-0.5-7.3-1.6l-8.5,1.6c-0.6,0.1-1.3-0.1-1.7-0.6c-0.4-0.5-0.5-1.2-0.3-1.8l2.6-6.2
		C5.3,27,6.5,17.1,12.9,11.1c6.7-6.3,16.9-6.4,23.7-0.4c6.8,6,8.3,16.4,3.3,24.1C36.6,40.1,30.9,43.1,25,43.1z M17.9,37.8
		c0.3,0,0.6,0.1,0.8,0.2c6.5,3.3,14.3,1,18.3-5.2c4-6.3,2.8-14.6-2.7-19.5c-5.5-4.8-13.6-4.7-18.9,0.3c-5.4,5-6.2,13.4-2.1,19.6
		c0.3,0.5,0.4,1.1,0.2,1.7l-1.7,4l5.8-1.1C17.7,37.9,17.8,37.8,17.9,37.8z"/>
</g>
<g>
	<path class="st0" d="M30.4,32h-1.8c-5.9,0-10.7-4.9-10.7-11v-1.8c0-1.5,1.2-2.7,2.7-2.7s2.7,1.2,2.7,2.7V21c0,1-0.6,1.9-1.4,2.4
		c0.7,2.2,2.3,3.9,4.4,4.6c0.5-0.9,1.3-1.4,2.4-1.4h1.8c1.5,0,2.7,1.2,2.7,2.7S31.8,32,30.4,32z"/>
</g>
</svg>
