<svg width="63" height="62" viewBox="0 0 63 62" fill="none" xmlns="http://www.w3.org/2000/svg">
<mask id="mask0_0_1987" style="mask-type:alpha" maskUnits="userSpaceOnUse" x="0" y="29" width="63" height="33">
<path fill-rule="evenodd" clip-rule="evenodd" d="M0.432373 29H62.4324V62H0.432373V29Z" fill="white"/>
</mask>
<g mask="url(#mask0_0_1987)">
<path fill-rule="evenodd" clip-rule="evenodd" d="M50.1356 38.7822H35.8175L41.9125 32.6532H56.2307L50.1356 38.7822ZM49.0715 58.3469H33.2487V42.4354H49.0717V58.3469H49.0715ZM13.7928 58.3469H29.6158V42.4355H13.7928V58.3469ZM6.63382 32.6532H20.952L27.0469 38.7822H12.7289L6.63382 32.6532ZM62.2941 30.1275C62.0129 29.445 61.3506 29 60.6159 29H41.1602C40.6784 29 40.2165 29.1925 39.8758 29.535L31.4324 38.0257L22.989 29.535C22.6484 29.1925 22.1865 29 21.7047 29H2.24873C1.51407 29 0.851712 29.445 0.570612 30.1275C0.289634 30.81 0.444899 31.5958 0.964346 32.1182L10.1601 41.3654V60.1735C10.1601 61.1822 10.9734 62 11.9765 62H50.888C51.8911 62 52.7044 61.1822 52.7044 60.1735V41.3654L61.9002 32.1182C62.4199 31.5958 62.5751 30.81 62.2941 30.1275Z" fill="#00a0df"/>
</g>
<path fill-rule="evenodd" clip-rule="evenodd" d="M22.9102 23.2282C23.9053 23.2282 24.7121 22.4161 24.7121 21.4143C24.7121 20.4125 23.9053 19.6003 22.9102 19.6003C16.8132 19.6003 14.0362 16.5729 14.0362 13.76C14.0362 11.7032 15.5866 9.62779 19.0501 9.62779C22.9264 9.62779 25.7452 12.7537 27.4283 18.9182C28.8071 23.9674 28.8285 29.1354 28.8285 29.187C28.829 30.1884 29.6355 31 30.6304 31C31.6256 31 32.4324 30.1877 32.4324 29.186C32.4324 28.9579 32.4151 23.5368 30.9213 18.0227C28.2291 8.08584 22.9797 6 19.0501 6C13.3925 6 10.4324 9.90379 10.4324 13.76C10.4324 18.7739 14.9854 23.2282 22.9102 23.2282Z" fill="#002a49"/>
<path fill-rule="evenodd" clip-rule="evenodd" d="M36.2176 19.3917C35.2316 19.3917 34.4324 20.1995 34.4324 21.1959C34.4324 22.1922 35.2316 23 36.2176 23C45.8358 23 51.4324 17.7323 51.4324 11.6826C51.4324 7.46788 48.1587 2 40.0418 2C39.056 2 38.2566 2.80776 38.2566 3.80414C38.2566 4.80052 39.056 5.60828 40.0418 5.60828C52.1464 6.02437 49.7686 19.7729 36.2176 19.3917Z" fill="#002a49"/>
<path fill-rule="evenodd" clip-rule="evenodd" d="M31.07 4.52742C31.7875 5.15747 33.0775 5.15758 33.7949 4.52742L35.8585 2.78499C37.5969 1.20513 35.0057 -0.983403 33.1335 0.484516L32.4323 1.07672L31.7311 0.484516C29.859 -0.983403 27.2679 1.20524 29.0062 2.78499C29.0062 2.78509 31.07 4.52742 31.07 4.52742Z" fill="#002a49"/>
</svg>
