<?xml version="1.0" encoding="utf-8"?>
<!-- Generator: Adobe Illustrator 24.2.3, SVG Export Plug-In . SVG Version: 6.00 Build 0)  -->
<svg version="1.1" id="Layer_1" xmlns="http://www.w3.org/2000/svg" xmlns:xlink="http://www.w3.org/1999/xlink" x="0px" y="0px"
	 viewBox="0 0 208.5 208.5" style="enable-background:new 0 0 208.5 208.5;" xml:space="preserve">
<style type="text/css">
	.st0{opacity:0.51;}
	.st1{fill:#010101;}
	.st2{fill:#020202;}
</style>
<g class="st0">
	<path class="st1" d="M130.6,132.3c0-14.4,0-28.8,0-43.2c0-1.5-0.4-2.3-1.7-3.2c-26.5-18.4-23.8-59.1,4.9-73.9
		c4.9-2.5,10.1,0.5,10.1,6.1c0.1,8.9,0,17.8,0,26.7c0,1.4,0.3,2.3,1.7,2.5c0.1,0,0.1,0,0.2,0.1c2.8,1.1,5.6,2.9,8.3,2.9
		c2.7,0,5.4-2,8.1-2.9c1.3-0.5,1.8-1.1,1.8-2.5c-0.1-8.7,0-17.4,0-26.1c0-6.5,5.1-9.5,10.8-6.4c28.3,15.5,30.5,55.2,4.1,73.6
		c-1.2,0.8-1.5,1.7-1.5,3.1c0,28.4,0,56.8,0,85.2c0,11.4-7,20.6-17.8,23.3c-14.4,3.6-28.7-7.1-28.9-22
		C130.5,161.1,130.6,146.7,130.6,132.3C130.6,132.3,130.6,132.3,130.6,132.3z M130.6,31.5c-0.5,0.7-0.7,0.9-0.9,1.2
		c-10.6,14.2-6.1,35.1,9.6,43.8c3.3,1.8,4.8,4.3,4.7,8c-0.1,23.8,0,47.5,0,71.3c0,6.3,0,12.7,0,19c0.1,5.8,4.8,10.3,10.6,10
		c5.5-0.3,9.5-4.7,9.5-10.7c0-30,0-59.9,0-89.9c0-3.5,1.4-5.8,4.4-7.6c10.8-6.2,16-15.7,15.6-28.2c-0.2-6.1-2.4-11.7-6.6-17
		c0,6.6,0,12.7,0,18.8c0,3.6-1.6,5.9-4.9,7.2c-5.2,2-10.3,4.1-15.5,6.2c-2.1,0.9-4.1,0.8-6.3,0c-5.1-2.1-10.2-4.1-15.3-6.1
		c-3.6-1.4-5-3.5-5-7.4C130.6,44.2,130.6,38.2,130.6,31.5z"/>
	<path class="st2" d="M103,198.2c-2.5-0.2-5.8,0.4-9.1-0.3c-6-1.3-10.2-6.2-10.6-12.3c-0.2-3.1-0.6-6.2-0.7-9.4
		c-0.1-1-0.5-1.4-1.4-1.7c-3.7-1.1-7.3-2.6-10.8-4.5c-1-0.5-1.6-0.4-2.4,0.3c-2.3,2-4.6,4-7,6c-5.8,4.9-13.2,4.6-18.7-0.7
		c-3.3-3.2-6.5-6.5-9.7-9.8c-5.3-5.4-5.5-12.9-0.6-18.7c1.9-2.3,3.9-4.6,5.9-6.8c0.7-0.8,0.9-1.5,0.3-2.5c-1.8-3.4-3.3-6.9-4.4-10.6
		c-0.3-1-0.7-1.5-1.8-1.5c-3.1-0.1-6.2-0.5-9.4-0.7c-7-0.5-12.5-6.1-12.6-13.2c-0.1-4.9-0.1-9.8,0-14.6c0.1-7.1,5.5-12.7,12.5-13.2
		c3.2-0.2,6.4-0.6,9.6-0.7c0.9-0.1,1.3-0.4,1.6-1.2c1.1-3.8,2.7-7.5,4.5-11c0.5-0.9,0.4-1.5-0.2-2.2c-2-2.3-4-4.6-6-7
		c-5-5.9-4.7-13.3,0.7-18.8c3.2-3.2,6.4-6.4,9.6-9.6c5.5-5.4,12.9-5.6,18.8-0.7c2.3,2,4.7,4,7,6c0.7,0.7,1.3,0.7,2.2,0.2
		c3.4-1.8,7-3.3,10.8-4.4c1-0.3,1.4-0.8,1.4-1.9c0.2-3.1,0.5-6.2,0.7-9.4c0.5-6.9,6.1-12.3,13-12.5c2.5-0.1,5-0.1,7.5,0
		c3.7,0.1,6.6,3,6.6,6.7c0,3.6-2.9,6.6-6.6,6.7c-1.9,0.1-3.8,0.1-5.6,0c-1.2-0.1-1.7,0.3-1.8,1.5c-0.3,4.4-0.7,8.9-1,13.3
		c-0.3,3.8-1.9,6-5.5,6.9c-6.3,1.6-12.1,4-17.6,7.3c-3.1,1.9-5.9,1.6-8.6-0.8c-3.5-2.9-6.9-5.8-10.3-8.8c-0.8-0.7-1.4-1-2.3,0
		c-2.6,2.8-5.4,5.5-8.1,8.1c-0.8,0.8-0.8,1.3-0.1,2.1c3,3.3,5.8,6.7,8.7,10.1c2.7,3.1,2.9,5.7,0.8,9.1c-3.2,5.4-5.6,11.1-7.1,17.3
		c-0.9,3.7-3,5.4-6.8,5.7c-4.4,0.3-8.9,0.7-13.3,1c-1.3,0.1-1.8,0.4-1.7,1.8c0.1,3.7,0.1,7.4,0,11.1c0,1.2,0.2,1.7,1.5,1.8
		c4.5,0.3,9,0.7,13.5,1c3.6,0.3,5.8,2,6.7,5.5c1.5,6.3,4,12.1,7.3,17.6c1.9,3.1,1.6,5.8-0.7,8.6c-2.9,3.5-5.9,6.9-8.8,10.3
		c-0.7,0.8-1,1.3,0,2.3c2.8,2.6,5.5,5.4,8.1,8.1c0.8,0.8,1.3,0.8,2.1,0.1c3.4-3,6.8-5.9,10.3-8.8c3-2.5,5.6-2.8,9-0.7
		c5.3,3.2,11,5.6,17,7.1c4.1,1,5.6,3.1,5.9,7.2c0.3,4.4,0.7,8.7,1,13.1c0.1,1.1,0.3,1.5,1.6,1.5c3.8-0.1,7.7-0.1,11.5,0
		c1,0,1.4-0.3,1.7-1.3c1.2-3.7,4.4-5.6,7.9-4.7c3.6,0.9,5.7,4.1,5.1,7.9c-0.9,6.3-6.4,11.2-12.8,11.4
		C108.9,198.3,106.3,198.2,103,198.2z"/>
	<path class="st2" d="M103.9,151.4c-23.9,0-43.9-17.9-46.6-41.9c-2.8-24.5,14.2-47,38.5-51.1c3.8-0.6,7.2,1.6,7.9,5.3
		c0.7,3.6-1.7,7.1-5.5,7.8c-10.3,2-18.4,7.3-23.4,16.5c-6.4,11.5-6.2,23.3,0.9,34.4c7.1,11.1,17.7,16.1,30.9,15.4
		c2.8-0.1,5.5-0.9,8.1-1.7c4.1-1.3,7.7,0.5,8.9,4.2c1.1,3.6-0.8,7.1-4.8,8.4C114,150.6,109,151.5,103.9,151.4z"/>
</g>
</svg>
