<?xml version="1.0" encoding="utf-8"?>
<!-- Generator: Adobe Illustrator 24.2.3, SVG Export Plug-In . SVG Version: 6.00 Build 0)  -->
<svg version="1.1" id="Layer_1" xmlns="http://www.w3.org/2000/svg" xmlns:xlink="http://www.w3.org/1999/xlink" x="0px" y="0px"
	 viewBox="0 0 1087.6 179.1" style="enable-background:new 0 0 1087.6 179.1;" xml:space="preserve">
<style type="text/css">
	.st0{fill:#565759;}
	.st1{fill:#2CAEE4;}
	.st2{fill:#358FC0;}
	.st3{fill:#29B4D1;}
	.st4{fill:#E1BB24;}
	.st5{opacity:0.57;fill:url(#XMLID_2_);}
	.st6{fill:#2082AA;}
	.st7{opacity:0.57;fill:url(#XMLID_3_);}
	.st8{fill:#0072A5;}
	.st9{fill:#005883;}
	.st10{opacity:0.57;fill:url(#XMLID_4_);}
	.st11{opacity:0.57;fill:url(#XMLID_5_);}
	.st12{fill:#005982;}
	.st13{fill:#003756;}
	.st14{opacity:0.57;fill:url(#XMLID_6_);}
	.st15{fill:#28729B;}
	.st16{opacity:0.57;fill:url(#XMLID_7_);}
	.st17{opacity:0.48;fill:url(#XMLID_8_);}
	.st18{opacity:0.48;fill:url(#XMLID_9_);}
	.st19{opacity:0.48;fill:url(#XMLID_10_);}
	.st20{opacity:0.48;fill:url(#XMLID_11_);}
</style>
<g>
	<path class="st0" d="M239.7,30.8h43.4c5.5,0,10.4,0.6,14.9,1.9c4.5,1.3,8.3,3.1,11.5,5.4c3.2,2.4,5.8,5.2,8,8.5
		c2.1,3.3,3.7,6.9,4.7,10.9c1,4,1.5,8.3,1.5,12.9c0,8.2-1.8,15.2-5.3,21c-3.5,5.8-8.4,10-14.7,12.8c-6.3,2.8-13.8,4.1-22.4,4.1
		h-12.6v34h-29V30.8z M276.4,82.5c4.9,0,8.8-1.1,11.8-3.3c2.9-2.2,4.4-5.3,4.4-9.4c0-3.6-1.4-6.7-4.2-9.1c-2.8-2.4-6.8-3.6-11.9-3.6
		h-7.8v25.5H276.4z"/>
	<path class="st0" d="M409.8,63.9v30c-1.5-0.1-3.5-0.2-5.9-0.2c-5.2,0-9.2,1.4-11.9,4.1c-2.7,2.7-4.1,6.4-4.1,11v33.6h-28.1V65.5
		h28.1V76h0.2c2.7-3.9,5.9-6.9,9.6-9c3.7-2.1,7.7-3.1,11.8-3.1H409.8z"/>
	<path class="st0" d="M460.6,139c-6.4-3.3-11.4-8.1-15-14.1s-5.3-13-5.3-20.9s1.8-14.8,5.3-20.9c3.6-6.1,8.5-10.8,15-14.2
		c6.4-3.4,13.7-5.1,21.9-5.1c8.2,0,15.5,1.7,21.9,5.1c6.4,3.4,11.4,8.1,15,14.2c3.6,6.1,5.4,13,5.4,20.9s-1.8,14.8-5.4,20.9
		s-8.6,10.8-15,14.1c-6.4,3.3-13.7,5-21.9,5C474.3,144,467,142.3,460.6,139z M492.5,114.9c2.7-2.9,4-6.5,4-10.9
		c0-4.5-1.3-8.2-3.9-11c-2.6-2.8-6-4.3-10-4.3c-2,0-3.9,0.4-5.6,1.1c-1.7,0.8-3.2,1.8-4.4,3.1c-1.2,1.3-2.2,2.9-2.9,4.8
		s-1,3.9-1,6.1c0,1.7,0.2,3.4,0.7,5c0.5,1.6,1.1,3,2,4.2c0.8,1.2,1.8,2.3,3,3.2c1.2,0.9,2.4,1.6,3.8,2.1c1.4,0.5,2.9,0.7,4.5,0.7
		C486.5,119.3,489.8,117.8,492.5,114.9z"/>
	<path class="st0" d="M635.4,65.5L606,142.4h-25.2l-29.4-76.9h29.1l12.9,43.6h0.3l12.5-43.6H635.4z"/>
	<path class="st0" d="M739.2,110.8h-50.5c0.6,3.6,2.4,6.3,5.3,8.2c2.9,1.9,6.5,2.8,10.7,2.8c6.4,0,12.3-2.8,17.7-8.5l14.5,15.9
		c-3.5,4.3-8.3,7.9-14.4,10.6c-6.1,2.7-13,4.1-20.8,4.1c-7.6,0-14.5-1.7-20.6-5c-6.1-3.3-11-8.1-14.5-14.2s-5.2-13.1-5.2-20.9
		c0-7.7,1.7-14.5,5.1-20.6c3.4-6.1,8.1-10.8,14.2-14.3c6.1-3.4,12.9-5.1,20.5-5.1c5.5,0,10.6,1,15.4,3c4.8,2,8.9,4.7,12.3,8.1
		c3.4,3.4,6.1,7.6,8.1,12.5c2,4.9,3,10.2,3,15.9C739.9,106.3,739.7,108.8,739.2,110.8z M693,88c-2.2,1.8-3.6,4.3-4.3,7.6h23.9
		c-0.4-1.6-0.9-3-1.6-4.3s-1.5-2.4-2.5-3.3s-2.1-1.6-3.4-2c-1.3-0.5-2.7-0.7-4.2-0.7C697.9,85.3,695.3,86.2,693,88z"/>
	<path class="st0" d="M851.4,110.8H801c0.6,3.6,2.4,6.3,5.3,8.2c2.9,1.9,6.5,2.8,10.7,2.8c6.4,0,12.3-2.8,17.7-8.5l14.5,15.9
		c-3.5,4.3-8.3,7.9-14.4,10.6c-6.1,2.7-13,4.1-20.8,4.1c-7.6,0-14.5-1.7-20.6-5c-6.1-3.3-11-8.1-14.5-14.2
		c-3.5-6.1-5.2-13.1-5.2-20.9c0-7.7,1.7-14.5,5.1-20.6c3.4-6.1,8.1-10.8,14.2-14.3c6.1-3.4,12.9-5.1,20.5-5.1c5.5,0,10.6,1,15.4,3
		c4.8,2,8.9,4.7,12.3,8.1c3.4,3.4,6.1,7.6,8.1,12.5c2,4.9,3,10.2,3,15.9C852.2,106.3,852,108.8,851.4,110.8z M805.3,88
		c-2.2,1.8-3.6,4.3-4.3,7.6H825c-0.4-1.6-0.9-3-1.6-4.3c-0.7-1.3-1.5-2.4-2.5-3.3s-2.1-1.6-3.4-2c-1.3-0.5-2.7-0.7-4.2-0.7
		C810.2,85.3,807.6,86.2,805.3,88z"/>
	<path class="st1" d="M905.6,139c-6.1-3.3-11-8.1-14.5-14.2c-3.5-6.1-5.2-13-5.2-20.8c0-7.8,1.8-14.8,5.3-20.9
		c3.6-6.1,8.5-10.8,15-14.2c6.4-3.4,13.7-5.1,21.9-5.1c6.6,0,12.9,1.4,18.9,4.1s10.9,6.7,14.7,11.8L943,95.6
		c-3.9-4.6-8.6-6.9-14.3-6.9c-4.4,0-7.9,1.4-10.6,4.2c-2.7,2.8-4,6.4-4,10.8c0,4.5,1.4,8.2,4.2,11c2.8,2.9,6.4,4.3,10.8,4.3
		c5.6,0,10.2-2.1,13.9-6.3l19.1,16.6c-3.5,4.3-8.4,7.9-14.5,10.5c-6.2,2.7-13.3,4-21.3,4C918.6,144,911.8,142.3,905.6,139z"/>
	<path class="st2" d="M1076,65.5v76.9h-26.6v-7.2h-0.2c-4.6,5.9-11.2,8.8-19.8,8.8c-5.2,0-10-1-14.5-3c-4.4-2-8.2-4.7-11.3-8.2
		c-3.1-3.5-5.6-7.7-7.3-12.7c-1.8-5-2.6-10.4-2.6-16.3c0-5.8,0.9-11.2,2.6-16.2c1.7-5,4.1-9.3,7.2-12.7c3-3.5,6.7-6.2,10.9-8.2
		c4.2-2,8.7-3,13.4-3c8,0,14.6,3.1,19.9,9.2h0.2v-7.6H1076z M1045.2,115.2c2.6-2.9,3.9-6.6,3.9-11.2c0-4.5-1.3-8.2-3.9-11.1
		c-2.6-2.9-5.8-4.3-9.6-4.3c-4,0-7.3,1.4-9.8,4.3c-2.6,2.9-3.8,6.6-3.8,11.1c0,4.7,1.3,8.4,3.8,11.2c2.6,2.8,5.8,4.3,9.8,4.3
		C1039.4,119.5,1042.6,118.1,1045.2,115.2z"/>
</g>
<g>
	<g id="XMLID_125_">
		<g id="XMLID_146_">
			<g id="XMLID_149_">
				<path id="XMLID_150_" class="st3" d="M142.1,27.7L94.4,64.3c-3.8,2.9-8.3,4.3-12.8,4.3c-5.5,0-10.9-2.1-15-6.2L54.4,50.2
					c2.2,0.4,4.4,0.7,6.8,0.7c8.8,0,16.9-3.4,22.9-9l43.5-33.3c5.3-4,12.8-3,16.8,2.2C148.4,16.2,147.4,23.7,142.1,27.7z"/>
			</g>
			<path id="XMLID_148_" class="st4" d="M84.1,41.9c-6,5.6-14.1,9-22.9,9c-2.3,0-4.6-0.2-6.8-0.7l-12-12c-4.7-4.7-4.7-12.3,0-17
				s12.3-4.7,17,0l22.4,22.4L84.1,41.9z"/>
			<linearGradient id="XMLID_2_" gradientUnits="userSpaceOnUse" x1="53.4048" y1="15.9456" x2="66.905" y2="51.1149">
				<stop  offset="0" style="stop-color:#FFFFFF;stop-opacity:0"/>
				<stop  offset="0.1083" style="stop-color:#EDECEB;stop-opacity:0.1083"/>
				<stop  offset="0.2654" style="stop-color:#CECACA;stop-opacity:0.2654"/>
				<stop  offset="0.4522" style="stop-color:#A29D9D;stop-opacity:0.4522"/>
				<stop  offset="0.662" style="stop-color:#6E6868;stop-opacity:0.662"/>
				<stop  offset="0.888" style="stop-color:#3C3737;stop-opacity:0.888"/>
				<stop  offset="1" style="stop-color:#231F20"/>
			</linearGradient>
			<path id="XMLID_147_" class="st5" d="M84.1,41.9c-6,5.6-14.1,9-22.9,9c-2.3,0-4.6-0.2-6.8-0.7l-12-12c-4.7-4.7-4.7-12.3,0-17
				s12.3-4.7,17,0l22.4,22.4L84.1,41.9z"/>
		</g>
		<g id="XMLID_144_">
			<path id="XMLID_145_" class="st1" d="M142.1,27.7L94.4,64.3c-3.8,2.9-8.3,4.3-12.8,4.3c-5.5,0-10.9-2.1-15-6.2L54.4,50.2
				c2.2,0.4,4.4,0.7,6.8,0.7c8.8,0,16.9-3.4,22.9-9l43.5-33.3c5.3-4,12.8-3,16.8,2.2C148.4,16.2,147.4,23.7,142.1,27.7z"/>
		</g>
		<path id="XMLID_143_" class="st6" d="M84.1,41.9c-6,5.6-14.1,9-22.9,9c-2.3,0-4.6-0.2-6.8-0.7l-12-12c-4.7-4.7-4.7-12.3,0-17
			s12.3-4.7,17,0l22.4,22.4L84.1,41.9z"/>
		<linearGradient id="XMLID_3_" gradientUnits="userSpaceOnUse" x1="53.4048" y1="15.9456" x2="66.905" y2="51.1149">
			<stop  offset="0" style="stop-color:#FFFFFF;stop-opacity:0"/>
			<stop  offset="0.1083" style="stop-color:#EDECEB;stop-opacity:0.1083"/>
			<stop  offset="0.2654" style="stop-color:#CECACA;stop-opacity:0.2654"/>
			<stop  offset="0.4522" style="stop-color:#A29D9D;stop-opacity:0.4522"/>
			<stop  offset="0.662" style="stop-color:#6E6868;stop-opacity:0.662"/>
			<stop  offset="0.888" style="stop-color:#3C3737;stop-opacity:0.888"/>
			<stop  offset="1" style="stop-color:#231F20"/>
		</linearGradient>
		<path id="XMLID_142_" class="st7" d="M84.1,41.9c-6,5.6-14.1,9-22.9,9c-2.3,0-4.6-0.2-6.8-0.7l-12-12c-4.7-4.7-4.7-12.3,0-17
			s12.3-4.7,17,0l22.4,22.4L84.1,41.9z"/>
		<g id="XMLID_140_">
			<path id="XMLID_141_" class="st8" d="M43.6,147.1l47.7-36.5c3.8-2.9,8.3-4.3,12.8-4.3c5.5,0,10.9,2.1,15,6.2l12.2,12.2
				c-2.2-0.4-4.4-0.7-6.8-0.7c-8.8,0-16.9,3.4-22.9,9l-43.5,33.3c-5.3,4-12.8,3-16.8-2.2C37.3,158.7,38.3,151.2,43.6,147.1z"/>
		</g>
		<path id="XMLID_139_" class="st9" d="M101.6,132.9c6-5.6,14.1-9,22.9-9c2.3,0,4.6,0.2,6.8,0.7l12,12c4.7,4.7,4.7,12.3,0,17
			c-4.7,4.7-12.3,4.7-17,0l-22.4-22.4L101.6,132.9z"/>
		
			<linearGradient id="XMLID_4_" gradientUnits="userSpaceOnUse" x1="5918.7388" y1="-1181.5795" x2="5932.2388" y2="-1146.4103" gradientTransform="matrix(-1 0 0 -1 6051.04 -1022.6628)">
			<stop  offset="0" style="stop-color:#FFFFFF;stop-opacity:0"/>
			<stop  offset="0.1083" style="stop-color:#EDECEB;stop-opacity:0.1083"/>
			<stop  offset="0.2654" style="stop-color:#CECACA;stop-opacity:0.2654"/>
			<stop  offset="0.4522" style="stop-color:#A29D9D;stop-opacity:0.4522"/>
			<stop  offset="0.662" style="stop-color:#6E6868;stop-opacity:0.662"/>
			<stop  offset="0.888" style="stop-color:#3C3737;stop-opacity:0.888"/>
			<stop  offset="1" style="stop-color:#231F20"/>
		</linearGradient>
		<path id="XMLID_138_" class="st10" d="M101.6,132.9c6-5.6,14.1-9,22.9-9c2.3,0,4.6,0.2,6.8,0.7l12,12c4.7,4.7,4.7,12.3,0,17
			c-4.7,4.7-12.3,4.7-17,0l-22.4-22.4L101.6,132.9z"/>
		<g id="XMLID_136_">
			<path id="XMLID_137_" class="st3" d="M33.1,38.2l36.5,47.7c2.9,3.8,4.3,8.3,4.3,12.8c0,5.5-2.1,10.9-6.2,15l-12.2,12.2
				c0.4-2.2,0.7-4.4,0.7-6.8c0-8.8-3.4-16.9-9-22.9L14.1,52.8c-4-5.3-3-12.8,2.2-16.8C21.6,31.9,29.1,32.9,33.1,38.2z"/>
		</g>
		<path id="XMLID_135_" class="st4" d="M47.4,96.2c5.6,6,9,14.1,9,22.9c0,2.3-0.2,4.6-0.7,6.8l-12,12c-4.7,4.7-12.3,4.7-17,0
			c-4.7-4.7-4.7-12.3,0-17l22.4-22.4L47.4,96.2z"/>
		
			<linearGradient id="XMLID_5_" gradientUnits="userSpaceOnUse" x1="2421.5854" y1="-3481.2073" x2="2435.0857" y2="-3446.0381" gradientTransform="matrix(0 -1 1 0 3502.5747 2548.4648)">
			<stop  offset="0" style="stop-color:#FFFFFF;stop-opacity:0"/>
			<stop  offset="0.1083" style="stop-color:#EDECEB;stop-opacity:0.1083"/>
			<stop  offset="0.2654" style="stop-color:#CECACA;stop-opacity:0.2654"/>
			<stop  offset="0.4522" style="stop-color:#A29D9D;stop-opacity:0.4522"/>
			<stop  offset="0.662" style="stop-color:#6E6868;stop-opacity:0.662"/>
			<stop  offset="0.888" style="stop-color:#3C3737;stop-opacity:0.888"/>
			<stop  offset="1" style="stop-color:#231F20"/>
		</linearGradient>
		<path id="XMLID_134_" class="st11" d="M47.4,96.2c5.6,6,9,14.1,9,22.9c0,2.3-0.2,4.6-0.7,6.8l-12,12c-4.7,4.7-12.3,4.7-17,0
			c-4.7-4.7-4.7-12.3,0-17l22.4-22.4L47.4,96.2z"/>
		<g id="XMLID_132_">
			<path id="XMLID_133_" class="st12" d="M33.1,38.2l36.5,47.7c2.9,3.8,4.3,8.3,4.3,12.8c0,5.5-2.1,10.9-6.2,15l-12.2,12.2
				c0.4-2.2,0.7-4.4,0.7-6.8c0-8.8-3.4-16.9-9-22.9L14.1,52.8c-4-5.3-3-12.8,2.2-16.8C21.6,31.9,29.1,32.9,33.1,38.2z"/>
		</g>
		<path id="XMLID_131_" class="st13" d="M47.4,96.2c5.6,6,9,14.1,9,22.9c0,2.3-0.2,4.6-0.7,6.8l-12,12c-4.7,4.7-12.3,4.7-17,0
			c-4.7-4.7-4.7-12.3,0-17l22.4-22.4L47.4,96.2z"/>
		
			<linearGradient id="XMLID_6_" gradientUnits="userSpaceOnUse" x1="2421.5854" y1="-3481.2073" x2="2435.0857" y2="-3446.0381" gradientTransform="matrix(0 -1 1 0 3502.5747 2548.4648)">
			<stop  offset="0" style="stop-color:#FFFFFF;stop-opacity:0"/>
			<stop  offset="0.1083" style="stop-color:#EDECEB;stop-opacity:0.1083"/>
			<stop  offset="0.2654" style="stop-color:#CECACA;stop-opacity:0.2654"/>
			<stop  offset="0.4522" style="stop-color:#A29D9D;stop-opacity:0.4522"/>
			<stop  offset="0.662" style="stop-color:#6E6868;stop-opacity:0.662"/>
			<stop  offset="0.888" style="stop-color:#3C3737;stop-opacity:0.888"/>
			<stop  offset="1" style="stop-color:#231F20"/>
		</linearGradient>
		<path id="XMLID_130_" class="st14" d="M47.4,96.2c5.6,6,9,14.1,9,22.9c0,2.3-0.2,4.6-0.7,6.8l-12,12c-4.7,4.7-12.3,4.7-17,0
			c-4.7-4.7-4.7-12.3,0-17l22.4-22.4L47.4,96.2z"/>
		<g id="XMLID_128_">
			<path id="XMLID_129_" class="st2" d="M152.6,136.7L116,89c-2.9-3.8-4.3-8.3-4.3-12.8c0-5.5,2.1-10.9,6.2-15L130,49
				c-0.4,2.2-0.7,4.4-0.7,6.8c0,8.8,3.4,16.9,9,22.9l33.3,43.5c4,5.3,3,12.8-2.2,16.8C164.1,143,156.6,142,152.6,136.7z"/>
		</g>
		<path id="XMLID_127_" class="st15" d="M138.3,78.7c-5.6-6-9-14.1-9-22.9c0-2.3,0.2-4.6,0.7-6.8l12-12c4.7-4.7,12.3-4.7,17,0
			c4.7,4.7,4.7,12.3,0,17l-22.4,22.4L138.3,78.7z"/>
		
			<linearGradient id="XMLID_7_" gradientUnits="userSpaceOnUse" x1="3550.5579" y1="2315.5737" x2="3564.0581" y2="2350.7429" gradientTransform="matrix(0 1 -1 0 2479.9121 -3502.5747)">
			<stop  offset="0" style="stop-color:#FFFFFF;stop-opacity:0"/>
			<stop  offset="0.1083" style="stop-color:#EDECEB;stop-opacity:0.1083"/>
			<stop  offset="0.2654" style="stop-color:#CECACA;stop-opacity:0.2654"/>
			<stop  offset="0.4522" style="stop-color:#A29D9D;stop-opacity:0.4522"/>
			<stop  offset="0.662" style="stop-color:#6E6868;stop-opacity:0.662"/>
			<stop  offset="0.888" style="stop-color:#3C3737;stop-opacity:0.888"/>
			<stop  offset="1" style="stop-color:#231F20"/>
		</linearGradient>
		<path id="XMLID_126_" class="st16" d="M138.3,78.7c-5.6-6-9-14.1-9-22.9c0-2.3,0.2-4.6,0.7-6.8l12-12c4.7-4.7,12.3-4.7,17,0
			c4.7,4.7,4.7,12.3,0,17l-22.4,22.4L138.3,78.7z"/>
	</g>
	<linearGradient id="XMLID_8_" gradientUnits="userSpaceOnUse" x1="85.097" y1="3.7801" x2="106.8395" y2="60.4213">
		<stop  offset="0" style="stop-color:#FFFFFF;stop-opacity:0"/>
		<stop  offset="0.1083" style="stop-color:#EDECEB;stop-opacity:0.1083"/>
		<stop  offset="0.2654" style="stop-color:#CECACA;stop-opacity:0.2654"/>
		<stop  offset="0.4522" style="stop-color:#A29D9D;stop-opacity:0.4522"/>
		<stop  offset="0.662" style="stop-color:#6E6868;stop-opacity:0.662"/>
		<stop  offset="0.888" style="stop-color:#3C3737;stop-opacity:0.888"/>
		<stop  offset="1" style="stop-color:#231F20"/>
	</linearGradient>
	<path id="XMLID_124_" class="st17" d="M54.4,50.2l12.2,12.2c4.1,4.1,9.5,6.2,15,6.2c4.5,0,9-1.4,12.8-4.3l47.7-36.5
		c5.3-4,6.3-11.6,2.2-16.8c-4-5.3-11.6-6.3-16.8-2.2L84.1,41.9l-2.3,1.8L59.4,21.3c-4.7-4.7-12.3-4.7-17,0c-4.7,4.7-4.7,12.3,0,17
		L54.4,50.2z"/>
	<linearGradient id="XMLID_9_" gradientUnits="userSpaceOnUse" x1="78.8663" y1="114.4412" x2="100.6088" y2="171.0822">
		<stop  offset="0" style="stop-color:#FFFFFF;stop-opacity:0"/>
		<stop  offset="0.1083" style="stop-color:#EDECEB;stop-opacity:0.1083"/>
		<stop  offset="0.2654" style="stop-color:#CECACA;stop-opacity:0.2654"/>
		<stop  offset="0.4522" style="stop-color:#A29D9D;stop-opacity:0.4522"/>
		<stop  offset="0.662" style="stop-color:#6E6868;stop-opacity:0.662"/>
		<stop  offset="0.888" style="stop-color:#3C3737;stop-opacity:0.888"/>
		<stop  offset="1" style="stop-color:#231F20"/>
	</linearGradient>
	<path id="XMLID_123_" class="st18" d="M131.3,124.6l-12.2-12.2c-4.1-4.1-9.5-6.2-15-6.2c-4.5,0-9,1.4-12.8,4.3l-47.7,36.5
		c-5.3,4-6.3,11.6-2.2,16.8c4,5.3,11.6,6.3,16.8,2.2l43.5-33.3l2.3-1.8l22.4,22.4c4.7,4.7,12.3,4.7,17,0c4.7-4.7,4.7-12.3,0-17
		L131.3,124.6z"/>
	<linearGradient id="XMLID_10_" gradientUnits="userSpaceOnUse" x1="18.4341" y1="34.5889" x2="56.6109" y2="134.0428">
		<stop  offset="0" style="stop-color:#FFFFFF;stop-opacity:0"/>
		<stop  offset="0.1083" style="stop-color:#EDECEB;stop-opacity:0.1083"/>
		<stop  offset="0.2654" style="stop-color:#CECACA;stop-opacity:0.2654"/>
		<stop  offset="0.4522" style="stop-color:#A29D9D;stop-opacity:0.4522"/>
		<stop  offset="0.662" style="stop-color:#6E6868;stop-opacity:0.662"/>
		<stop  offset="0.888" style="stop-color:#3C3737;stop-opacity:0.888"/>
		<stop  offset="1" style="stop-color:#231F20"/>
	</linearGradient>
	<path id="XMLID_122_" class="st19" d="M55.7,125.9l12.2-12.2c4.1-4.1,6.2-9.5,6.2-15c0-4.5-1.4-9-4.3-12.8L33.1,38.2
		c-4-5.3-11.6-6.3-16.8-2.2c-5.3,4-6.3,11.6-2.2,16.8l33.3,43.5l1.8,2.3l-22.4,22.4c-4.7,4.7-4.7,12.3,0,17c4.7,4.7,12.3,4.7,17,0
		L55.7,125.9z"/>
	<linearGradient id="XMLID_11_" gradientUnits="userSpaceOnUse" x1="129.095" y1="40.8195" x2="167.2718" y2="140.2735">
		<stop  offset="0" style="stop-color:#FFFFFF;stop-opacity:0"/>
		<stop  offset="0.1083" style="stop-color:#EDECEB;stop-opacity:0.1083"/>
		<stop  offset="0.2654" style="stop-color:#CECACA;stop-opacity:0.2654"/>
		<stop  offset="0.4522" style="stop-color:#A29D9D;stop-opacity:0.4522"/>
		<stop  offset="0.662" style="stop-color:#6E6868;stop-opacity:0.662"/>
		<stop  offset="0.888" style="stop-color:#3C3737;stop-opacity:0.888"/>
		<stop  offset="1" style="stop-color:#231F20"/>
	</linearGradient>
	<path id="XMLID_121_" class="st20" d="M138.3,78.7l-1.8-2.3L159,53.9c4.7-4.7,4.7-12.3,0-17c-4.7-4.7-12.3-4.7-17,0l-12,12
		l-12.2,12.2c-4.1,4.1-6.2,9.5-6.2,15c0,4.5,1.4,9,4.3,12.8l36.5,47.7c4,5.3,11.6,6.3,16.8,2.2c5.3-4,6.3-11.6,2.2-16.8L138.3,78.7z
		"/>
</g>
</svg>
