<?xml version="1.0" encoding="utf-8"?>
<!-- Generator: Adobe Illustrator 24.2.3, SVG Export Plug-In . SVG Version: 6.00 Build 0)  -->
<svg version="1.1" id="Layer_1" xmlns="http://www.w3.org/2000/svg" xmlns:xlink="http://www.w3.org/1999/xlink" x="0px" y="0px"
	 viewBox="0 0 18.7 18.7" style="enable-background:new 0 0 18.7 18.7;" xml:space="preserve">
<style type="text/css">
	.st0{clip-path:url(#SVGID_2_);enable-background:new    ;}
	.st1{clip-path:url(#SVGID_4_);}
	.st2{clip-path:url(#SVGID_6_);}
	.st3{clip-path:url(#SVGID_8_);fill:#00a0df;}
	.st4{clip-path:url(#SVGID_10_);fill:#00a0df;}
</style>
<g>
	<defs>
		<rect id="SVGID_1_" x="3.3" y="3.7" width="12" height="12"/>
	</defs>
	<clipPath id="SVGID_2_">
		<use xlink:href="#SVGID_1_"  style="overflow:visible;"/>
	</clipPath>
	<g class="st0">
		<g>
			<defs>
				<rect id="SVGID_3_" x="2.3" y="2.7" width="14" height="14"/>
			</defs>
			<clipPath id="SVGID_4_">
				<use xlink:href="#SVGID_3_"  style="overflow:visible;"/>
			</clipPath>
			<g class="st1">
				<defs>
					<path id="SVGID_5_" d="M9,3.7c-3.2,0.2-5.7,2.8-5.7,6c0,1,0.2,1.9,0.7,2.7l-0.6,3.1c0,0.2,0.1,0.3,0.3,0.3l3-0.7
						c0.8,0.4,1.7,0.6,2.6,0.6c3.3,0,6-2.5,6.1-5.8C15.4,6.4,12.5,3.6,9,3.7 M12.6,13c-0.9,0.9-2.1,1.4-3.3,1.4
						c-0.7,0-1.4-0.2-2.1-0.5l-0.4-0.2l-1.9,0.4l0.4-1.9l-0.2-0.4c-0.3-0.7-0.5-1.4-0.5-2.1c0-1.2,0.5-2.4,1.4-3.3
						C6.9,5.5,8,5,9.3,5c1.3,0,2.4,0.5,3.3,1.4C13.5,7.3,14,8.4,14,9.7C14,10.9,13.5,12.1,12.6,13"/>
				</defs>
				<clipPath id="SVGID_6_">
					<use xlink:href="#SVGID_5_"  style="overflow:visible;"/>
				</clipPath>
				<g class="st2">
					<defs>
						<rect id="SVGID_7_" x="3.3" y="3.7" width="12" height="12"/>
					</defs>
					<clipPath id="SVGID_8_">
						<use xlink:href="#SVGID_7_"  style="overflow:visible;"/>
					</clipPath>
					<rect x="2.3" y="2.6" class="st3" width="14.1" height="14.2"/>
				</g>
			</g>
		</g>
	</g>
</g>
<g>
	<defs>
		<path id="SVGID_9_" d="M12.4,10.8l-1.2-0.4c-0.2,0-0.3,0-0.4,0.1l-0.3,0.3C10.4,11,10.2,11.1,10,11c-0.6-0.2-1.7-1.3-2-1.9
			C7.9,9,8,8.8,8.1,8.6l0.2-0.3C8.4,8.1,8.4,8,8.4,7.8L7.9,6.6C7.8,6.3,7.4,6.2,7.2,6.4C6.9,6.7,6.5,7.2,6.4,7.7
			C6.4,8.6,6.7,9.7,8,11c1.5,1.5,2.8,1.7,3.5,1.5c0.5-0.1,0.8-0.6,1-1C12.8,11.3,12.6,10.9,12.4,10.8"/>
	</defs>
	<clipPath id="SVGID_10_">
		<use xlink:href="#SVGID_9_"  style="overflow:visible;"/>
	</clipPath>
	<rect x="5.4" y="5.2" class="st4" width="8.4" height="8.5"/>
</g>
</svg>
