<?xml version="1.0" encoding="utf-8"?>
<!-- Generator: Adobe Illustrator 24.2.3, SVG Export Plug-In . SVG Version: 6.00 Build 0)  -->
<svg version="1.1" id="Layer_1" xmlns="http://www.w3.org/2000/svg" xmlns:xlink="http://www.w3.org/1999/xlink" x="0px" y="0px"
	 viewBox="0 0 595.3 107" style="enable-background:new 0 0 595.3 107;" xml:space="preserve">
<style type="text/css">
	.st0{fill-rule:evenodd;clip-rule:evenodd;fill:#047D5A;}
	.st1{fill-rule:evenodd;clip-rule:evenodd;fill:#F47D20;}
	.st2{fill-rule:evenodd;clip-rule:evenodd;fill:#ED1C24;}
</style>
<g>
	<polygon class="st0" points="541.8,0.2 544.3,0 546.9,0.2 550.9,0.8 553.3,1.4 555.4,2.4 557.1,3.4 558.4,4.5 560.5,7 562.2,10 
		563.5,13.4 564.3,17.2 564.3,104.1 535,104.1 535,32 534,29.5 531.8,27.6 529.5,26.3 526.7,25.9 524.4,26.3 521.6,28 520.1,30 
		518.7,32.7 518.7,104.1 489.3,104.1 489.3,2.7 518.7,2.7 518.7,12.6 522.5,9.4 524.8,7.2 526.5,5.7 528.6,4.5 531.1,3.2 534.1,1.9 
		537.5,0.8 541.8,0.2 	"/>
	<polygon class="st0" points="234.6,2.7 234.6,81.6 255.6,81.6 255.6,104.1 204.9,104.1 204.9,2.7 234.6,2.7 	"/>
	<polygon class="st0" points="362.7,2.7 373.9,67.4 386.4,2.7 409.3,2.7 390,104.1 346.1,104.1 331.3,2.7 362.7,2.7 	"/>
	<polygon class="st0" points="473,2.7 473,25.2 448.5,25.2 448.5,43.7 473,43.7 473,63.1 448.5,63.1 448.5,81.6 473,81.6 473,104.1 
		419,104.1 419,2.7 473,2.7 	"/>
	<polygon class="st0" points="116.8,44 116.8,63.4 82.4,63.4 82.4,44 116.8,44 	"/>
	<polygon class="st0" points="185.6,2.7 185.6,25.2 160.7,25.2 160.7,43.7 185.6,43.7 185.6,63.1 160.7,63.1 160.7,81.6 185.6,81.6 
		185.6,104.1 131.4,104.1 131.4,2.7 185.6,2.7 	"/>
	<polygon class="st0" points="320.3,2.7 320.3,25.2 295.5,25.2 295.5,43.7 320.3,43.7 320.3,63.1 295.5,63.1 295.5,81.6 320.3,81.6 
		320.3,104.1 266,104.1 266,2.7 320.3,2.7 	"/>
	<polygon class="st1" points="1.1,26.9 35.7,26.9 43.5,18.2 47.8,14.2 53.1,10 57.7,6.8 63.5,3.2 1.1,3.2 1.1,26.9 	"/>
	<path class="st2" d="M76.9,2.3C57.7,7.1,38.9,25.8,33.1,39.5C20.9,67.2,23,104.3,23,104.3s21.1-0.2,29.9-0.2
		c-0.3-26.3-0.2-42.6,3.6-55.4C60.4,36,76.9,27.6,76.9,27.6V2.3L76.9,2.3z"/>
	<path class="st0" d="M572.7,92.9c0-5.6,4.2-9.8,9.6-9.8c5.3,0,9.5,4.2,9.5,9.8c0,5.7-4.2,9.8-9.5,9.8
		C576.9,102.8,572.7,98.6,572.7,92.9L572.7,92.9z M582.3,104.7c6.4,0,11.9-5,11.9-11.8c0-6.8-5.5-11.7-11.9-11.7
		c-6.5,0-11.9,5-11.9,11.7C570.3,99.7,575.8,104.7,582.3,104.7L582.3,104.7z M579.8,93.9h2.4l3.6,5.9h2.3l-3.9-6
		c2-0.2,3.5-1.3,3.5-3.7c0-2.7-1.6-3.9-4.8-3.9h-5.2v13.6h2.1V93.9L579.8,93.9z M579.8,92.1v-4.2h2.8c1.4,0,3,0.3,3,2
		c0,2.1-1.6,2.2-3.3,2.2H579.8L579.8,92.1z"/>
</g>
</svg>
