<?xml version="1.0" standalone="no"?>
<!DOCTYPE svg PUBLIC "-//W3C//DTD SVG 20010904//EN"
 "http://www.w3.org/TR/2001/REC-SVG-20010904/DTD/svg10.dtd">
<svg version="1.0" xmlns="http://www.w3.org/2000/svg"
 width="700.000000pt" height="700.000000pt" viewBox="0 0 700.000000 700.000000"
 preserveAspectRatio="xMidYMid meet">
<metadata>
Created by potrace 1.14, written by Peter Selinger 2001-2017
</metadata>
<g transform="translate(0.000000,700.000000) scale(0.100000,-0.100000)"
fill="#000000" stroke="none">
<path d="M5274 6831 c5 -7 -12 -12 -53 -13 -34 -1 -71 -2 -83 -2 -13 -1 -25
-4 -28 -7 -3 -3 -30 -14 -60 -23 -30 -10 -58 -22 -61 -28 -4 -5 -18 -11 -31
-11 -15 -1 -24 -7 -21 -14 3 -6 -6 -17 -19 -24 -13 -6 -25 -15 -28 -18 -13
-17 -90 -72 -90 -65 0 5 -7 -2 -16 -14 -9 -14 -22 -21 -31 -18 -8 3 -12 2 -9
-3 7 -10 -152 -134 -171 -134 -7 0 -10 -4 -7 -8 5 -9 -36 -35 -49 -31 -5 1 -6
-2 -2 -8 3 -5 -2 -13 -12 -17 -10 -4 -20 -10 -23 -14 -15 -22 -124 -98 -133
-92 -6 3 -7 1 -4 -4 7 -10 -20 -28 -35 -25 -5 1 -7 -4 -5 -11 1 -6 -6 -11 -15
-11 -10 1 -16 -2 -13 -6 7 -11 -50 -51 -60 -42 -5 4 -5 2 -2 -4 7 -12 -38 -47
-60 -47 -6 0 -11 -5 -10 -11 1 -6 -6 -10 -15 -10 -10 1 -14 -4 -11 -12 3 -8
-1 -14 -10 -14 -8 0 -18 -7 -21 -16 -3 -8 -10 -12 -16 -9 -6 3 -13 -1 -16 -10
-4 -8 -14 -14 -23 -13 -9 2 -15 -2 -14 -9 2 -6 -21 -29 -50 -50 -28 -20 -58
-44 -66 -51 -7 -7 -20 -11 -27 -8 -8 3 -11 0 -7 -11 5 -12 1 -14 -15 -9 -11 4
-23 2 -27 -3 -4 -7 1 -8 12 -4 16 6 16 5 4 -11 -8 -9 -20 -15 -27 -12 -8 3
-13 0 -11 -7 1 -7 -6 -11 -15 -11 -9 1 -15 -4 -13 -10 2 -6 -43 -45 -101 -86
-57 -41 -115 -85 -130 -98 -14 -12 -30 -19 -36 -16 -6 4 -8 2 -5 -3 8 -13 -40
-46 -53 -38 -6 4 -7 -1 -3 -11 4 -11 2 -15 -4 -11 -6 4 -14 0 -17 -9 -3 -8
-10 -12 -16 -9 -5 3 -10 -1 -10 -9 0 -10 -6 -13 -15 -9 -10 3 -15 0 -13 -8 2
-8 -5 -13 -15 -12 -10 0 -16 -1 -13 -4 6 -6 -26 -43 -37 -43 -4 0 -5 5 -2 10
3 6 4 10 0 10 -3 0 -10 -12 -15 -26 -7 -18 -15 -24 -26 -20 -8 3 -13 2 -9 -3
7 -12 -52 -54 -64 -46 -5 3 -13 0 -17 -6 -4 -8 -3 -9 4 -5 7 4 12 4 12 -1 -1
-11 -214 -174 -258 -197 -20 -10 -39 -22 -42 -26 -7 -10 -143 -73 -157 -73 -7
0 -13 -4 -13 -9 0 -4 -7 -8 -15 -8 -8 0 -15 5 -15 10 0 6 3 9 8 8 4 -1 36 11
72 27 36 17 68 29 73 27 4 -1 7 2 7 6 0 5 24 22 53 37 28 16 55 33 59 39 4 6
8 7 8 2 0 -5 12 3 26 18 15 14 32 26 38 26 12 0 96 75 96 85 0 4 -20 -10 -45
-31 l-45 -37 -463 461 c-254 253 -480 475 -502 492 -168 133 -413 142 -589 21
-152 -105 -238 -299 -208 -473 25 -146 45 -173 356 -486 239 -240 285 -282
311 -283 27 -1 27 -2 7 -7 -20 -6 -2 -27 173 -197 107 -104 195 -190 195 -189
0 0 26 -24 58 -55 32 -31 56 -59 54 -63 -2 -5 2 -8 9 -8 6 0 26 -15 43 -33 28
-29 60 -54 105 -82 9 -5 35 -22 59 -38 24 -15 40 -22 37 -16 -6 9 32 -8 45
-21 3 -3 14 -7 25 -8 11 -2 22 -7 25 -10 3 -4 21 -9 40 -10 19 -2 37 -8 38
-13 2 -5 8 -7 13 -4 5 3 18 1 30 -6 15 -8 19 -8 15 0 -4 6 -2 11 3 11 6 0 11
-4 11 -9 0 -5 14 -7 30 -6 17 1 33 -1 36 -6 3 -5 14 -3 25 4 16 10 21 9 28 -2
6 -9 11 -10 15 -2 4 6 12 11 17 11 6 0 7 -6 3 -12 -6 -10 -4 -10 7 -2 8 6 29
10 47 8 18 -1 34 2 37 6 2 4 16 6 30 5 14 -2 25 1 25 7 0 6 6 6 15 -2 12 -10
16 -9 21 4 3 9 10 13 15 10 6 -3 16 0 24 6 8 6 19 9 25 5 5 -3 10 -1 10 5 0 6
4 9 9 5 5 -3 12 -1 16 5 4 6 11 8 16 5 5 -4 9 -1 9 4 0 6 3 11 8 10 14 -2 52
14 52 22 0 5 7 5 17 2 9 -4 14 -2 10 3 -3 6 3 16 15 23 16 10 19 10 13 -1 -3
-7 1 -4 9 6 9 11 16 17 16 13 0 -4 8 1 18 11 30 28 62 52 68 52 4 0 17 11 30
26 13 14 24 21 24 17 1 -4 10 3 20 16 11 13 20 19 20 15 0 -5 6 -2 13 6 7 9
33 31 60 50 26 18 47 37 47 42 0 5 4 7 8 4 5 -3 15 4 22 15 8 10 20 19 26 19
7 0 14 4 16 8 2 4 44 39 93 77 86 65 118 90 175 134 14 11 131 101 260 201
129 99 249 191 265 205 17 13 210 161 430 330 220 169 424 331 453 361 99 104
148 240 139 384 -12 174 -79 288 -217 368 -25 14 -47 29 -50 32 -3 3 -14 6
-25 8 -11 2 -36 9 -56 17 -20 8 -39 11 -43 8 -3 -3 -17 2 -32 12 -15 9 -23 12
-20 6z m-2594 -1749 c0 -9 -55 -30 -95 -37 -11 -2 -21 -4 -22 -5 -6 -5 -110
-26 -168 -35 -29 -4 -36 -3 -25 4 8 6 26 11 40 11 28 0 201 42 240 58 32 14
30 13 30 4z m-657 -69 c-7 -2 -21 -2 -30 0 -10 3 -4 5 12 5 17 0 24 -2 18 -5z
m91 -11 c2 -4 -13 -6 -35 -4 -21 2 -39 6 -39 8 0 7 69 4 74 -4z m85 -8 c2 -2
-12 -4 -33 -4 -20 0 -35 4 -31 9 5 9 54 5 64 -5z m61 6 c0 -5 -12 -10 -27 -9
l-28 1 25 8 c14 4 26 8 28 9 1 1 2 -3 2 -9z m87 4 c-3 -3 -23 -8 -44 -10 -27
-2 -34 -1 -23 6 16 10 77 14 67 4z"/>
<path d="M5758 5710 c-124 -32 -155 -56 -448 -352 -595 -599 -885 -903 -918
-960 -88 -149 -122 -284 -119 -468 1 -69 5 -129 8 -135 4 -5 10 -28 14 -50 5
-22 9 -46 11 -53 6 -33 87 -202 97 -202 4 0 7 -7 7 -15 0 -8 5 -15 10 -15 6 0
10 -4 10 -10 0 -5 8 -19 18 -29 22 -25 33 -38 62 -80 14 -19 36 -48 50 -64 14
-16 24 -33 22 -38 -1 -5 2 -9 7 -9 5 0 27 -24 48 -52 41 -57 40 -56 108 -140
25 -32 43 -58 40 -58 -3 0 5 -11 19 -24 15 -13 26 -28 26 -34 0 -6 4 -12 8
-14 5 -1 32 -34 62 -73 29 -38 63 -82 74 -96 12 -14 28 -37 36 -49 8 -13 23
-30 33 -39 9 -8 17 -19 17 -23 0 -4 9 -18 19 -30 24 -28 139 -176 166 -214 11
-15 28 -37 38 -48 9 -12 53 -68 97 -126 153 -201 185 -242 195 -254 6 -6 27
-34 47 -61 21 -28 41 -54 46 -60 4 -5 70 -91 146 -190 76 -99 152 -195 170
-213 144 -153 409 -195 610 -96 66 32 109 72 157 146 70 108 102 263 78 376
-15 73 -19 85 -39 119 -11 19 -14 31 -8 28 7 -4 5 0 -4 8 -10 8 -15 17 -11 20
3 4 1 7 -5 7 -7 0 -12 6 -12 14 0 8 -4 16 -8 18 -4 2 -25 26 -45 53 -20 28
-46 61 -57 75 -25 31 -69 88 -95 124 -11 15 -32 42 -47 59 -14 18 -26 36 -26
40 -1 5 -9 16 -19 25 -23 21 -83 99 -83 107 0 3 -10 16 -22 29 -13 13 -30 33
-38 46 -8 12 -20 28 -25 34 -37 41 -73 94 -68 100 3 3 -1 6 -10 6 -10 0 -17 5
-17 10 0 6 -11 23 -25 38 -14 15 -25 30 -25 35 0 4 -11 18 -25 31 -14 13 -25
26 -25 30 0 4 -6 13 -12 21 -7 7 -22 25 -33 40 -11 14 -28 34 -37 43 -10 9
-18 21 -18 27 0 5 -14 24 -30 42 -17 18 -30 35 -30 38 0 4 -6 12 -12 20 -23
23 -48 55 -48 60 0 3 -8 13 -17 23 -10 11 -27 32 -38 48 -11 15 -31 42 -45 59
-38 45 -77 99 -77 105 1 3 -10 16 -23 30 -31 32 -82 97 -81 104 0 3 -9 16 -22
29 -36 39 -76 91 -76 100 0 5 -6 14 -14 20 -8 7 -39 44 -69 82 -30 39 -65 79
-77 89 -11 11 -21 24 -21 30 0 6 10 0 21 -14 l21 -25 -14 25 c-9 14 -21 26
-27 26 -6 1 -13 2 -16 3 -3 0 217 224 489 497 429 431 499 505 529 562 46 88
59 139 59 236 -1 322 -304 557 -614 476z m-614 -1506 c3 -8 2 -12 -4 -9 -6 3
-10 10 -10 16 0 14 7 11 14 -7z m26 -54 c6 -11 8 -20 6 -20 -3 0 -10 9 -16 20
-6 11 -8 20 -6 20 3 0 10 -9 16 -20z m30 -55 c14 -19 14 -19 -2 -6 -10 7 -18
18 -18 24 0 6 1 8 3 6 1 -2 9 -13 17 -24z m44 -74 c-5 -5 -33 30 -34 43 0 4 9
-2 19 -15 11 -13 17 -26 15 -28z m31 -37 c9 -15 12 -23 6 -20 -11 7 -35 46
-28 46 3 0 12 -12 22 -26z"/>
<path d="M548 5705 c-192 -41 -332 -183 -373 -381 -26 -124 1 -280 63 -373 15
-22 119 -158 232 -302 113 -145 281 -360 373 -478 92 -119 173 -223 180 -231
78 -98 116 -150 111 -150 -4 0 5 -10 20 -21 15 -12 25 -23 23 -25 -2 -3 11
-21 29 -41 18 -20 30 -41 27 -46 -3 -6 -1 -7 4 -4 11 7 28 -20 24 -36 -1 -5 3
-6 9 -2 5 3 15 -5 22 -19 6 -14 15 -26 20 -26 5 0 8 -6 6 -14 -2 -8 2 -15 7
-16 19 -3 46 -34 40 -47 -2 -8 -1 -11 5 -8 9 6 36 -34 32 -48 -1 -5 2 -6 7 -3
5 3 14 0 20 -8 9 -11 9 -15 -1 -19 -8 -4 -7 -6 4 -6 19 -1 41 -34 30 -46 -4
-3 -1 -5 6 -3 8 2 19 -5 25 -16 7 -10 22 -29 35 -42 13 -13 20 -29 17 -34 -3
-6 -1 -10 6 -10 12 0 38 -29 39 -43 0 -5 -5 -5 -12 -1 -7 4 -8 3 -4 -4 4 -6
13 -9 21 -5 8 3 15 0 15 -7 0 -6 7 -18 15 -27 8 -8 12 -20 8 -26 -3 -7 -3 -9
2 -5 9 9 35 -9 35 -24 0 -6 -8 -4 -17 3 -10 8 -5 -3 11 -24 27 -37 28 -39 9
-59 -10 -11 -222 -224 -470 -474 -249 -249 -471 -479 -493 -510 -153 -218 -91
-540 132 -687 117 -76 265 -104 388 -73 145 37 133 27 701 597 290 291 525
529 524 529 -2 0 22 27 53 59 32 33 62 66 67 73 17 24 35 52 42 68 4 8 13 21
20 28 7 8 11 18 8 23 -4 5 -1 9 4 9 6 0 11 6 11 13 0 6 7 26 16 42 9 17 18 44
21 60 3 17 9 31 13 33 5 2 6 14 4 28 -2 13 -1 24 4 24 8 0 10 15 13 105 1 35
5 52 12 48 6 -4 7 -1 1 8 -14 23 -15 51 -2 67 11 13 11 14 0 8 -9 -5 -12 1
-12 21 0 66 -5 101 -14 96 -5 -3 -7 5 -4 21 3 14 1 26 -5 26 -5 0 -7 9 -4 20
3 11 0 20 -6 20 -6 0 -7 3 -4 7 4 3 0 14 -9 24 -9 10 -14 25 -11 34 4 8 2 15
-4 15 -6 0 -8 7 -5 16 3 8 2 12 -4 9 -9 -5 -15 16 -11 38 1 5 -3 6 -9 2 -5 -3
-10 -2 -10 3 0 5 -11 26 -25 46 -13 20 -22 36 -19 36 3 0 -2 7 -10 16 -9 9
-29 32 -44 52 -15 21 -37 48 -49 61 -12 14 -19 29 -16 35 3 6 3 8 -2 4 -7 -7
-45 32 -45 46 0 3 -8 14 -18 25 -9 10 -42 51 -74 92 -31 41 -129 169 -218 284
-89 116 -210 272 -268 348 -59 77 -154 200 -212 275 -58 76 -142 184 -186 242
-440 575 -439 573 -528 625 -107 63 -247 86 -368 60z m1155 -2625 c9 -11 15
-20 12 -20 -2 0 9 -15 26 -32 16 -18 29 -38 29 -45 0 -7 3 -13 8 -13 4 0 20
-23 35 -50 16 -28 25 -50 22 -50 -3 0 3 -10 14 -22 11 -11 18 -25 15 -30 -3
-4 0 -8 5 -8 6 0 10 -3 9 -7 -1 -5 3 -18 10 -30 7 -12 8 -24 4 -27 -5 -3 -14
12 -22 32 -7 20 -11 38 -9 39 2 1 -4 8 -14 15 -10 8 -19 21 -20 29 -2 9 -10
28 -20 42 -9 15 -17 31 -17 37 0 5 -3 10 -7 10 -5 0 -19 17 -33 38 -14 20 -29
42 -35 48 -26 30 -45 55 -45 59 0 11 17 4 33 -15z m222 -402 c2 -9 8 -25 13
-35 15 -29 25 -80 13 -68 -5 6 -12 21 -15 35 -6 29 -28 90 -38 106 -4 6 -4 14
-1 18 7 7 21 -22 28 -56z m40 -138 c-3 -5 -1 -11 5 -15 5 -3 10 -18 9 -33 0
-24 -1 -25 -8 -7 -5 11 -7 23 -5 27 3 4 0 9 -6 13 -5 3 -10 13 -10 21 0 8 5
12 10 9 6 -4 8 -10 5 -15z m22 -102 c2 -18 0 -20 -7 -8 -12 18 -13 30 -2 30 4
0 9 -10 9 -22z m10 -55 c1 -24 1 -25 -7 -8 -11 26 -12 35 -2 35 4 0 8 -12 9
-27z m8 -43 c3 -5 1 -10 -4 -10 -6 0 -11 5 -11 10 0 6 2 10 4 10 3 0 8 -4 11
-10z m2 -55 c2 -14 0 -25 -4 -25 -4 0 -9 14 -10 31 -3 36 9 31 14 -6z m3 -151
c0 -8 -5 -12 -10 -9 -6 4 -8 11 -5 16 9 14 15 11 15 -7z m-23 -136 c-3 -7 -5
-2 -5 12 0 14 2 19 5 13 2 -7 2 -19 0 -25z"/>
<path d="M3811 2718 c-79 -12 -219 -61 -287 -101 -49 -29 -237 -169 -419 -311
-16 -13 -124 -96 -240 -185 -115 -88 -215 -164 -220 -168 -38 -29 -171 -132
-445 -342 -173 -133 -328 -253 -345 -266 -16 -12 -119 -91 -228 -175 -152
-116 -208 -165 -242 -213 -75 -102 -104 -200 -100 -330 4 -123 40 -229 103
-299 114 -127 314 -189 487 -152 71 15 175 60 175 76 0 5 6 8 13 8 8 0 24 11
37 25 13 14 27 25 30 25 4 0 25 16 46 35 21 19 44 35 51 35 7 0 13 4 13 8 0 4
25 25 56 47 31 22 61 45 67 50 42 37 107 86 107 81 0 -3 8 2 18 12 22 21 73
62 102 82 13 8 28 20 34 25 6 6 29 24 51 40 22 17 45 35 51 40 6 6 22 17 34
25 22 15 31 22 94 73 19 16 38 28 42 27 4 -1 11 5 15 12 5 8 27 28 51 44 24
16 57 41 73 56 17 16 33 28 36 28 3 0 15 8 27 17 52 45 63 53 67 53 5 0 37 25
60 47 8 7 18 13 23 13 6 0 12 4 14 9 3 10 104 91 113 91 3 0 16 9 28 21 12 12
33 28 47 38 14 9 37 27 52 39 14 13 30 24 35 25 4 1 18 10 30 22 26 24 35 31
88 70 45 34 43 32 150 116 44 34 83 67 87 73 4 6 8 7 8 2 0 -5 9 3 21 18 l20
26 487 -486 c268 -268 510 -502 538 -520 163 -105 379 -103 543 7 210 140 278
415 158 644 -25 48 -88 117 -306 335 -152 152 -286 282 -298 290 -12 7 -19 18
-16 23 3 6 2 8 -3 4 -5 -3 -116 101 -246 231 -334 336 -344 344 -463 405 -149
75 -344 103 -524 75z m359 -873 c0 -2 -10 -9 -22 -15 -22 -11 -22 -10 -4 4 21
17 26 19 26 11z m-50 -29 c0 -2 -20 -16 -45 -30 -25 -13 -43 -21 -40 -15 4 5
23 18 43 29 41 21 42 22 42 16z m-100 -60 c0 -3 -15 -14 -32 -26 l-33 -22 30
26 c31 27 35 29 35 22z"/>
</g>
</svg>
